<svg xmlns="http://www.w3.org/2000/svg" width="16" height="16" viewBox="0 0 16 16"><defs><style>.a{fill:#0a6eb4;}</style></defs><g transform="translate(-3 4)"><path class="a" d="M21.638,3H16V4.836h1.865v1.25H16V7.308h1.846V8.538H16V9.769h1.846V11H16v1.231h1.846v1.231H16v1.846h5.638a.527.527,0,0,0,.516-.535V3.535A.527.527,0,0,0,21.638,3Zm-.715,10.462H18.462V12.231h2.462Zm0-2.462H18.462V9.769h2.462Zm0-2.462H18.462V7.308h2.462Zm0-2.462H18.462V4.846h2.462Z" transform="translate(-3.154 -5.154)"/><path class="a" d="M0,1.778V14.223L9.231,16V0Zm5.839,9.348L4.765,9.1a1.8,1.8,0,0,1-.126-.417H4.622a3.16,3.16,0,0,1-.144.435L3.4,11.126H1.727L3.714,8.01,1.9,4.893H3.6L4.5,6.762a3.265,3.265,0,0,1,.187.526H4.7q.053-.183.2-.543l.991-1.852H7.451L5.582,7.983,7.5,11.126Z" transform="translate(3 -4)"/></g></svg>